<svg
  width="16"
  height="14"
  viewBox="0 0 16 14"
  fill="none"
  xmlns="http://www.w3.org/2000/svg"
>
  <path
    d="M14.63 1.4575C14.2469 1.07425 13.7921 0.770231 13.2915 0.562809C12.7909 0.355387 12.2543 0.248627 11.7125 0.248627C11.1706 0.248627 10.634 0.355387 10.1334 0.562809C9.63285 0.770231 9.17803 1.07425 8.79497 1.4575L7.99997 2.2525L7.20497 1.4575C6.4312 0.683727 5.38174 0.249028 4.28747 0.249028C3.19319 0.249028 2.14374 0.683727 1.36997 1.4575C0.596198 2.23127 0.161499 3.28072 0.161499 4.375C0.161499 5.46927 0.596198 6.51873 1.36997 7.2925L2.16497 8.0875L7.99997 13.9225L13.835 8.0875L14.63 7.2925C15.0132 6.90943 15.3172 6.45461 15.5247 5.95401C15.7321 5.45342 15.8388 4.91686 15.8388 4.375C15.8388 3.83313 15.7321 3.29657 15.5247 2.79598C15.3172 2.29539 15.0132 1.84056 14.63 1.4575Z"
  />
</svg>
